<?xml version="1.0" encoding="utf-8"?>
<!-- Generator: Adobe Illustrator 23.0.3, SVG Export Plug-In . SVG Version: 6.00 Build 0)  -->
<svg version="1.1" id="Capa_1" xmlns="http://www.w3.org/2000/svg" xmlns:xlink="http://www.w3.org/1999/xlink" x="0px" y="0px"
	 viewBox="0 0 128 128" style="enable-background:new 0 0 128 128;" xml:space="preserve">
<style type="text/css">
	.st0{fill:#FF002B;}
	.st1{fill:#FF6A24;}
	.st2{fill:#FFC400;}
	.st3{fill:#00E546;}
	.st4{fill:#00BFE7;}
	.st5{fill:#0068FF;}
	.st6{fill:#171E3F;}
</style>
<circle class="st0" cx="108.38" cy="99.71" r="4.6"/>
<circle class="st1" cx="91.03" cy="99.71" r="4.6"/>
<circle class="st2" cx="73.68" cy="99.71" r="4.6"/>
<g>
	<circle class="st3" cx="56.32" cy="99.71" r="4.6"/>
</g>
<circle class="st4" cx="38.97" cy="99.71" r="4.6"/>
<circle class="st5" cx="21.62" cy="99.71" r="4.6"/>
<path class="st6" d="M100.96,42.5c-0.41-2.71-2.63-7.31-9.69-7.31c-4.85,0-7.97,3.04-7.97,6.24c0,2.79,1.73,4.85,5.75,5.59
	l7.81,1.48c11.09,2.05,16.13,9.2,16.13,17.5c0,9.12-6.93,18.4-20.81,18.4c-16.1,0-23-10.43-23.82-18.65l11.91-2.88
	c0.49,5.34,4.11,10.02,12.08,10.02c5.09,0,8.21-2.46,8.21-6.08c0-2.96-2.38-5.09-6.24-5.83l-7.97-1.48
	c-9.86-1.89-15.86-8.46-15.86-17.09c0-11.01,9.69-18.73,20.87-18.73c14.54,0,20.04,8.71,21.28,15.53L100.96,42.5z"/>
<path class="st6" d="M49.43,55.06c5.01-2.24,8.22-7.94,8.22-14.53c0-8.95-6.66-15.61-18.16-15.61H17.02v58.25h12.65v-10.6v-0.13
	V59.31v-0.38V48.25v-1.62V35.68h7.61c5.09,0,7.64,2.46,7.64,6.24c0,4.41-3.99,6.33-8.51,6.33h-3.68v8.99
	C35.71,57.53,44.14,57.42,49.43,55.06z"/>
<path class="st6" d="M54.14,55.65c-3.05,2.67-6.6,3.46-11.07,4.02c1.94,1.36,3.5,3.88,3.5,6.07c0,4.43-3.04,6.99-8.05,6.99h-5.78
	v10.42h8.49c11.01,0,18.24-6.98,18.24-16.51C59.47,61.87,56.97,58.04,54.14,55.65z"/>
</svg>
